# MagicaVoxel @ Ephtracy

# group
o 

# material
mtllib platform-1.mtl
usemtl palette

# normals
vn -1 0 0
vn 1 0 0
vn 0 0 1
vn 0 0 -1
vn 0 -1 0
vn 0 1 0

# texcoords
vt 0.00195313 0.5
vt 0.0175781 0.5

# verts
v -0.8 1.4 0.8
v -0.8 1.4 -0.8
v -0.8 1.5 0.8
v -0.8 1.5 -0.8
v -0.6 1.5 0.6
v -0.6 1.5 -0.2
v -0.6 1.5 -0.3
v -0.6 1.5 -0.6
v -0.6 1.6 0.6
v -0.6 1.6 -0.2
v -0.6 1.6 -0.3
v -0.6 1.6 -0.6
v 0.6 1.5 0.6
v 0.6 1.5 -0.6
v 0.6 1.6 0.6
v 0.6 1.6 -0.6
v 0.8 1.4 0.8
v 0.8 1.4 -0.8
v 0.8 1.5 0.8
v 0.8 1.5 -0.8
v -0.8 1.4 0.8
v -0.8 1.5 0.8
v -0.1 1.4 0.8
v -0.1 1.5 0.8
v 0 1.4 0.8
v 0 1.5 0.8
v 0.8 1.4 0.8
v 0.8 1.5 0.8
v -0.6 1.5 0.6
v -0.6 1.6 0.6
v 0.6 1.5 0.6
v 0.6 1.6 0.6
v -0.6 1.5 -0.6
v -0.6 1.6 -0.6
v 0.6 1.5 -0.6
v 0.6 1.6 -0.6
v -0.8 1.4 -0.8
v -0.8 1.5 -0.8
v -0.6 1.4 -0.8
v -0.6 1.5 -0.8
v -0.5 1.4 -0.8
v -0.5 1.5 -0.8
v 0.8 1.4 -0.8
v 0.8 1.5 -0.8
v -0.8 1.4 0.8
v -0.1 1.4 0.8
v 0 1.4 0.8
v 0.8 1.4 0.8
v -0.1 1.4 0.7
v 0 1.4 0.7
v -0.6 1.4 -0.7
v -0.5 1.4 -0.7
v -0.8 1.4 -0.8
v -0.6 1.4 -0.8
v -0.5 1.4 -0.8
v 0.8 1.4 -0.8
v -0.8 1.5 0.8
v -0.1 1.5 0.8
v 0 1.5 0.8
v 0.8 1.5 0.8
v -0.1 1.5 0.7
v 0 1.5 0.7
v -0.6 1.5 0.6
v 0.6 1.5 0.6
v -0.6 1.5 -0.2
v -0.6 1.5 -0.3
v -0.6 1.5 -0.6
v 0.6 1.5 -0.6
v -0.6 1.5 -0.7
v -0.5 1.5 -0.7
v -0.8 1.5 -0.8
v -0.6 1.5 -0.8
v -0.5 1.5 -0.8
v 0.8 1.5 -0.8
v -0.6 1.6 0.6
v 0.6 1.6 0.6
v -0.4 1.6 0.5
v -0.3 1.6 0.5
v -0.4 1.6 0.4
v -0.3 1.6 0.4
v 0.3 1.6 0.3
v 0.4 1.6 0.3
v 0.3 1.6 0.2
v 0.4 1.6 0.2
v 0.5 1.6 0.2
v 0.4 1.6 0.1
v 0.5 1.6 0.1
v -0.6 1.6 -0.2
v -0.5 1.6 -0.2
v 0.3 1.6 -0.2
v 0.4 1.6 -0.2
v -0.6 1.6 -0.3
v -0.5 1.6 -0.3
v 0.3 1.6 -0.3
v 0.4 1.6 -0.3
v -0.3 1.6 -0.4
v -0.2 1.6 -0.4
v -0.3 1.6 -0.5
v -0.2 1.6 -0.5
v -0.6 1.6 -0.6
v 0.6 1.6 -0.6

# faces
f 3/2/1 2/2/1 1/2/1
f 4/2/1 2/2/1 3/2/1
f 9/2/1 6/2/1 5/2/1
f 10/1/1 7/1/1 6/1/1
f 10/2/1 6/2/1 9/2/1
f 11/2/1 8/2/1 7/2/1
f 11/1/1 7/1/1 10/1/1
f 12/2/1 8/2/1 11/2/1
f 13/2/2 14/2/2 15/2/2
f 15/2/2 14/2/2 16/2/2
f 17/2/2 18/2/2 19/2/2
f 19/2/2 18/2/2 20/2/2
f 23/2/3 22/2/3 21/2/3
f 24/2/3 22/2/3 23/2/3
f 25/1/3 24/1/3 23/1/3
f 26/1/3 24/1/3 25/1/3
f 27/2/3 26/2/3 25/2/3
f 28/2/3 26/2/3 27/2/3
f 31/2/3 30/2/3 29/2/3
f 32/2/3 30/2/3 31/2/3
f 33/2/4 34/2/4 35/2/4
f 35/2/4 34/2/4 36/2/4
f 37/2/4 38/2/4 39/2/4
f 39/2/4 38/2/4 40/2/4
f 39/1/4 40/1/4 41/1/4
f 41/1/4 40/1/4 42/1/4
f 41/2/4 42/2/4 43/2/4
f 43/2/4 42/2/4 44/2/4
f 49/2/5 46/2/5 45/2/5
f 49/1/5 47/1/5 46/1/5
f 50/2/5 48/2/5 47/2/5
f 50/1/5 47/1/5 49/1/5
f 51/2/5 49/2/5 45/2/5
f 51/2/5 50/2/5 49/2/5
f 52/2/5 50/2/5 51/2/5
f 53/2/5 51/2/5 45/2/5
f 54/1/5 52/1/5 51/1/5
f 54/2/5 51/2/5 53/2/5
f 55/2/5 50/2/5 52/2/5
f 55/1/5 52/1/5 54/1/5
f 56/2/5 48/2/5 50/2/5
f 56/2/5 50/2/5 55/2/5
f 57/2/6 58/2/6 61/2/6
f 58/1/6 59/1/6 61/1/6
f 59/2/6 60/2/6 62/2/6
f 61/1/6 59/1/6 62/1/6
f 57/2/6 61/2/6 63/2/6
f 61/2/6 62/2/6 63/2/6
f 62/2/6 60/2/6 64/2/6
f 63/2/6 62/2/6 64/2/6
f 57/2/6 63/2/6 65/2/6
f 57/2/6 65/2/6 66/2/6
f 57/2/6 66/2/6 67/2/6
f 64/2/6 60/2/6 68/2/6
f 57/2/6 67/2/6 69/2/6
f 67/2/6 68/2/6 69/2/6
f 69/2/6 68/2/6 70/2/6
f 57/2/6 69/2/6 71/2/6
f 69/1/6 70/1/6 72/1/6
f 71/2/6 69/2/6 72/2/6
f 70/2/6 68/2/6 73/2/6
f 72/1/6 70/1/6 73/1/6
f 68/2/6 60/2/6 74/2/6
f 73/2/6 68/2/6 74/2/6
f 75/2/6 76/2/6 77/2/6
f 77/2/6 76/2/6 78/2/6
f 75/2/6 77/2/6 79/2/6
f 77/1/6 78/1/6 79/1/6
f 78/2/6 76/2/6 80/2/6
f 79/1/6 78/1/6 80/1/6
f 79/2/6 80/2/6 81/2/6
f 80/2/6 76/2/6 81/2/6
f 81/2/6 76/2/6 82/2/6
f 79/2/6 81/2/6 83/2/6
f 81/1/6 82/1/6 83/1/6
f 82/2/6 76/2/6 84/2/6
f 83/1/6 82/1/6 84/1/6
f 84/2/6 76/2/6 85/2/6
f 83/2/6 84/2/6 86/2/6
f 84/1/6 85/1/6 86/1/6
f 85/2/6 76/2/6 87/2/6
f 86/1/6 85/1/6 87/1/6
f 75/2/6 79/2/6 88/2/6
f 79/2/6 83/2/6 88/2/6
f 86/2/6 87/2/6 88/2/6
f 83/2/6 86/2/6 88/2/6
f 88/2/6 87/2/6 89/2/6
f 89/2/6 87/2/6 90/2/6
f 90/2/6 87/2/6 91/2/6
f 88/1/6 89/1/6 92/1/6
f 89/2/6 90/2/6 93/2/6
f 92/1/6 89/1/6 93/1/6
f 90/1/6 91/1/6 94/1/6
f 93/2/6 90/2/6 94/2/6
f 91/2/6 87/2/6 95/2/6
f 94/1/6 91/1/6 95/1/6
f 93/2/6 94/2/6 96/2/6
f 92/2/6 93/2/6 96/2/6
f 94/2/6 95/2/6 96/2/6
f 96/2/6 95/2/6 97/2/6
f 92/2/6 96/2/6 98/2/6
f 96/1/6 97/1/6 98/1/6
f 97/2/6 95/2/6 99/2/6
f 98/1/6 97/1/6 99/1/6
f 92/2/6 98/2/6 100/2/6
f 98/2/6 99/2/6 100/2/6
f 87/2/6 76/2/6 101/2/6
f 100/2/6 99/2/6 101/2/6
f 95/2/6 87/2/6 101/2/6
f 99/2/6 95/2/6 101/2/6
