# MagicaVoxel @ Ephtracy

# group
o 

# material
mtllib surface3.mtl
usemtl palette

# normals
vn -1 0 0
vn 1 0 0
vn 0 0 1
vn 0 0 -1
vn 0 -1 0
vn 0 1 0

# texcoords
vt 0.00195313 0.5
vt 0.00585938 0.5
vt 0.0175781 0.5

# verts
v -0.8 0 0.8
v -0.8 0 -0.8
v -0.8 1.5 0.8
v -0.8 1.5 -0.8
v -0.7 1.5 0.7
v -0.7 1.5 -0.7
v -0.7 1.6 0.7
v -0.7 1.6 -0.7
v 0.7 1.5 0.7
v 0.7 1.5 -0.7
v 0.7 1.6 0.7
v 0.7 1.6 -0.7
v 0.8 0 0.8
v 0.8 0 -0.8
v 0.8 1.5 0.8
v 0.8 1.5 -0.8
v -0.8 0 0.8
v -0.8 1.5 0.8
v 0.8 0 0.8
v 0.8 1.5 0.8
v -0.7 1.5 0.7
v -0.7 1.6 0.7
v 0.7 1.5 0.7
v 0.7 1.6 0.7
v -0.7 1.5 -0.7
v -0.7 1.6 -0.7
v 0.7 1.5 -0.7
v 0.7 1.6 -0.7
v -0.8 0 -0.8
v -0.8 1.5 -0.8
v 0.8 0 -0.8
v 0.8 1.5 -0.8
v -0.8 0 0.8
v 0.8 0 0.8
v -0.8 0 -0.8
v 0.8 0 -0.8
v -0.8 1.5 0.8
v 0.8 1.5 0.8
v -0.7 1.5 0.7
v 0.7 1.5 0.7
v -0.7 1.5 -0.7
v 0.7 1.5 -0.7
v -0.8 1.5 -0.8
v 0.8 1.5 -0.8
v -0.7 1.6 0.7
v 0.7 1.6 0.7
v -0.5 1.6 0.6
v -0.4 1.6 0.6
v 0 1.6 0.6
v 0.1 1.6 0.6
v 0.2 1.6 0.6
v 0.3 1.6 0.6
v 0.5 1.6 0.6
v 0.6 1.6 0.6
v -0.6 1.6 0.5
v -0.5 1.6 0.5
v -0.4 1.6 0.5
v -0.3 1.6 0.5
v -0.2 1.6 0.5
v -0.1 1.6 0.5
v 0 1.6 0.5
v 0.1 1.6 0.5
v 0.2 1.6 0.5
v 0.3 1.6 0.5
v 0.4 1.6 0.5
v 0.5 1.6 0.5
v 0.6 1.6 0.5
v -0.6 1.6 0.4
v -0.5 1.6 0.4
v -0.4 1.6 0.4
v -0.3 1.6 0.4
v -0.2 1.6 0.4
v -0.1 1.6 0.4
v 0 1.6 0.4
v 0.1 1.6 0.4
v 0.2 1.6 0.4
v 0.3 1.6 0.4
v 0.4 1.6 0.4
v 0.6 1.6 0.4
v -0.6 1.6 0.3
v -0.5 1.6 0.3
v -0.4 1.6 0.3
v -0.3 1.6 0.3
v -0.2 1.6 0.3
v -0.1 1.6 0.3
v 0 1.6 0.3
v 0.1 1.6 0.3
v 0.3 1.6 0.3
v 0.4 1.6 0.3
v 0.6 1.6 0.3
v -0.6 1.6 0.2
v -0.5 1.6 0.2
v -0.4 1.6 0.2
v -0.3 1.6 0.2
v -0.2 1.6 0.2
v -0.1 1.6 0.2
v 0 1.6 0.2
v 0.1 1.6 0.2
v 0.2 1.6 0.2
v 0.3 1.6 0.2
v 0.4 1.6 0.2
v 0.5 1.6 0.2
v 0.6 1.6 0.2
v -0.6 1.6 0.1
v -0.5 1.6 0.1
v -0.4 1.6 0.1
v -0.3 1.6 0.1
v -0.2 1.6 0.1
v 0 1.6 0.1
v 0.1 1.6 0.1
v 0.2 1.6 0.1
v 0.3 1.6 0.1
v 0.4 1.6 0.1
v 0.5 1.6 0.1
v 0.6 1.6 0.1
v -0.6 1.6 0
v -0.5 1.6 0
v -0.4 1.6 0
v -0.3 1.6 0
v -0.2 1.6 0
v -0.1 1.6 0
v 0 1.6 0
v 0.1 1.6 0
v 0.2 1.6 0
v 0.3 1.6 0
v 0.5 1.6 0
v 0.6 1.6 0
v -0.5 1.6 -0.1
v -0.4 1.6 -0.1
v -0.2 1.6 -0.1
v -0.1 1.6 -0.1
v 0 1.6 -0.1
v 0.1 1.6 -0.1
v 0.2 1.6 -0.1
v 0.3 1.6 -0.1
v 0.4 1.6 -0.1
v 0.5 1.6 -0.1
v 0.6 1.6 -0.1
v -0.6 1.6 -0.2
v -0.4 1.6 -0.2
v -0.3 1.6 -0.2
v -0.2 1.6 -0.2
v -0.1 1.6 -0.2
v 0 1.6 -0.2
v 0.1 1.6 -0.2
v 0.2 1.6 -0.2
v 0.4 1.6 -0.2
v 0.5 1.6 -0.2
v -0.6 1.6 -0.3
v -0.5 1.6 -0.3
v -0.4 1.6 -0.3
v -0.3 1.6 -0.3
v -0.2 1.6 -0.3
v -0.1 1.6 -0.3
v 0.1 1.6 -0.3
v 0.2 1.6 -0.3
v 0.3 1.6 -0.3
v 0.4 1.6 -0.3
v 0.5 1.6 -0.3
v 0.6 1.6 -0.3
v -0.2 1.6 -0.4
v -0.1 1.6 -0.4
v 0 1.6 -0.4
v 0.1 1.6 -0.4
v 0.2 1.6 -0.4
v 0.3 1.6 -0.4
v 0.4 1.6 -0.4
v 0.5 1.6 -0.4
v -0.4 1.6 -0.5
v -0.3 1.6 -0.5
v -0.2 1.6 -0.5
v -0.1 1.6 -0.5
v 0 1.6 -0.5
v 0.1 1.6 -0.5
v 0.2 1.6 -0.5
v 0.5 1.6 -0.5
v 0.6 1.6 -0.5
v -0.6 1.6 -0.6
v -0.5 1.6 -0.6
v -0.4 1.6 -0.6
v -0.2 1.6 -0.6
v -0.1 1.6 -0.6
v 0.1 1.6 -0.6
v 0.2 1.6 -0.6
v 0.3 1.6 -0.6
v 0.6 1.6 -0.6
v -0.7 1.6 -0.7
v 0.7 1.6 -0.7

# faces
f 3/3/1 2/3/1 1/3/1
f 4/3/1 2/3/1 3/3/1
f 7/1/1 6/1/1 5/1/1
f 8/1/1 6/1/1 7/1/1
f 9/1/2 10/1/2 11/1/2
f 11/1/2 10/1/2 12/1/2
f 13/3/2 14/3/2 15/3/2
f 15/3/2 14/3/2 16/3/2
f 19/3/3 18/3/3 17/3/3
f 20/3/3 18/3/3 19/3/3
f 23/1/3 22/1/3 21/1/3
f 24/1/3 22/1/3 23/1/3
f 25/1/4 26/1/4 27/1/4
f 27/1/4 26/1/4 28/1/4
f 29/3/4 30/3/4 31/3/4
f 31/3/4 30/3/4 32/3/4
f 35/3/5 34/3/5 33/3/5
f 36/3/5 34/3/5 35/3/5
f 37/3/6 38/3/6 39/3/6
f 39/3/6 38/3/6 40/3/6
f 37/3/6 39/3/6 41/3/6
f 40/3/6 38/3/6 42/3/6
f 37/3/6 41/3/6 43/3/6
f 41/3/6 42/3/6 43/3/6
f 42/3/6 38/3/6 44/3/6
f 43/3/6 42/3/6 44/3/6
f 45/1/6 46/1/6 47/1/6
f 47/1/6 46/1/6 48/1/6
f 48/1/6 46/1/6 49/1/6
f 49/1/6 46/1/6 50/1/6
f 50/1/6 46/1/6 51/1/6
f 51/1/6 46/1/6 52/1/6
f 52/1/6 46/1/6 53/1/6
f 53/1/6 46/1/6 54/1/6
f 45/1/6 47/1/6 55/1/6
f 47/2/6 48/2/6 56/2/6
f 55/1/6 47/1/6 56/1/6
f 48/3/6 49/3/6 57/3/6
f 56/2/6 48/2/6 57/2/6
f 57/3/6 49/3/6 58/3/6
f 58/3/6 49/3/6 59/3/6
f 59/3/6 49/3/6 60/3/6
f 49/2/6 50/2/6 61/2/6
f 60/3/6 49/3/6 61/3/6
f 50/1/6 51/1/6 62/1/6
f 61/2/6 50/2/6 62/2/6
f 51/2/6 52/2/6 63/2/6
f 62/1/6 51/1/6 63/1/6
f 52/3/6 53/3/6 64/3/6
f 63/2/6 52/2/6 64/2/6
f 64/3/6 53/3/6 65/3/6
f 53/2/6 54/2/6 66/2/6
f 65/3/6 53/3/6 66/3/6
f 54/1/6 46/1/6 67/1/6
f 66/2/6 54/2/6 67/2/6
f 45/1/6 55/1/6 68/1/6
f 55/2/6 56/2/6 68/2/6
f 56/3/6 57/3/6 69/3/6
f 68/2/6 56/2/6 69/2/6
f 57/1/6 58/1/6 70/1/6
f 69/3/6 57/3/6 70/3/6
f 58/2/6 59/2/6 71/2/6
f 70/1/6 58/1/6 71/1/6
f 59/3/6 60/3/6 72/3/6
f 71/2/6 59/2/6 72/2/6
f 60/1/6 61/1/6 73/1/6
f 72/3/6 60/3/6 73/3/6
f 61/1/6 62/1/6 73/1/6
f 73/1/6 62/1/6 74/1/6
f 62/2/6 63/2/6 75/2/6
f 74/1/6 62/1/6 75/1/6
f 63/1/6 64/1/6 76/1/6
f 75/2/6 63/2/6 76/2/6
f 64/3/6 65/3/6 77/3/6
f 76/1/6 64/1/6 77/1/6
f 65/1/6 66/1/6 78/1/6
f 77/3/6 65/3/6 78/3/6
f 66/1/6 67/1/6 78/1/6
f 67/1/6 46/1/6 79/1/6
f 78/1/6 67/1/6 79/1/6
f 45/1/6 68/1/6 80/1/6
f 68/1/6 69/1/6 80/1/6
f 70/3/6 71/3/6 81/3/6
f 80/1/6 69/1/6 81/1/6
f 69/3/6 70/3/6 81/3/6
f 81/3/6 71/3/6 82/3/6
f 71/1/6 72/1/6 83/1/6
f 82/3/6 71/3/6 83/3/6
f 72/2/6 73/2/6 84/2/6
f 83/1/6 72/1/6 84/1/6
f 73/2/6 74/2/6 84/2/6
f 84/2/6 74/2/6 85/2/6
f 76/3/6 77/3/6 86/3/6
f 85/2/6 74/2/6 86/2/6
f 74/3/6 75/3/6 86/3/6
f 75/3/6 76/3/6 86/3/6
f 86/3/6 77/3/6 87/3/6
f 77/2/6 78/2/6 88/2/6
f 87/3/6 77/3/6 88/3/6
f 78/3/6 79/3/6 89/3/6
f 88/2/6 78/2/6 89/2/6
f 79/1/6 46/1/6 90/1/6
f 89/3/6 79/3/6 90/3/6
f 45/1/6 80/1/6 91/1/6
f 80/3/6 81/3/6 91/3/6
f 81/1/6 82/1/6 92/1/6
f 91/3/6 81/3/6 92/3/6
f 82/2/6 83/2/6 93/2/6
f 92/1/6 82/1/6 93/1/6
f 84/1/6 85/1/6 94/1/6
f 93/2/6 83/2/6 94/2/6
f 83/1/6 84/1/6 94/1/6
f 94/1/6 85/1/6 95/1/6
f 86/3/6 87/3/6 96/3/6
f 95/1/6 85/1/6 96/1/6
f 85/3/6 86/3/6 96/3/6
f 96/3/6 87/3/6 97/3/6
f 87/1/6 88/1/6 98/1/6
f 97/3/6 87/3/6 98/3/6
f 98/1/6 88/1/6 99/1/6
f 88/3/6 89/3/6 100/3/6
f 99/1/6 88/1/6 100/1/6
f 89/2/6 90/2/6 101/2/6
f 100/3/6 89/3/6 101/3/6
f 101/2/6 90/2/6 102/2/6
f 90/1/6 46/1/6 103/1/6
f 102/2/6 90/2/6 103/2/6
f 91/1/6 92/1/6 104/1/6
f 45/1/6 91/1/6 104/1/6
f 92/3/6 93/3/6 105/3/6
f 104/1/6 92/1/6 105/1/6
f 93/3/6 94/3/6 105/3/6
f 105/3/6 94/3/6 106/3/6
f 94/1/6 95/1/6 107/1/6
f 106/3/6 94/3/6 107/3/6
f 96/3/6 97/3/6 108/3/6
f 107/1/6 95/1/6 108/1/6
f 95/3/6 96/3/6 108/3/6
f 98/1/6 99/1/6 109/1/6
f 108/3/6 97/3/6 109/3/6
f 97/1/6 98/1/6 109/1/6
f 109/1/6 99/1/6 110/1/6
f 99/3/6 100/3/6 111/3/6
f 110/1/6 99/1/6 111/1/6
f 100/1/6 101/1/6 112/1/6
f 111/3/6 100/3/6 112/3/6
f 101/2/6 102/2/6 113/2/6
f 112/1/6 101/1/6 113/1/6
f 102/1/6 103/1/6 114/1/6
f 113/2/6 102/2/6 114/2/6
f 103/1/6 46/1/6 115/1/6
f 114/1/6 103/1/6 115/1/6
f 45/1/6 104/1/6 116/1/6
f 105/3/6 106/3/6 116/3/6
f 104/3/6 105/3/6 116/3/6
f 116/3/6 106/3/6 117/3/6
f 106/2/6 107/2/6 118/2/6
f 117/3/6 106/3/6 118/3/6
f 107/3/6 108/3/6 119/3/6
f 118/2/6 107/2/6 119/2/6
f 109/1/6 110/1/6 120/1/6
f 119/3/6 108/3/6 120/3/6
f 108/1/6 109/1/6 120/1/6
f 120/1/6 110/1/6 121/1/6
f 121/1/6 110/1/6 122/1/6
f 111/2/6 112/2/6 123/2/6
f 122/1/6 110/1/6 123/1/6
f 110/2/6 111/2/6 123/2/6
f 123/2/6 112/2/6 124/2/6
f 112/3/6 113/3/6 125/3/6
f 124/2/6 112/2/6 125/2/6
f 114/3/6 115/3/6 126/3/6
f 113/1/6 114/1/6 126/1/6
f 115/1/6 46/1/6 127/1/6
f 126/3/6 115/3/6 127/3/6
f 116/2/6 117/2/6 128/2/6
f 117/3/6 118/3/6 128/3/6
f 120/1/6 121/1/6 129/1/6
f 128/3/6 118/3/6 129/3/6
f 118/1/6 119/1/6 129/1/6
f 119/1/6 120/1/6 129/1/6
f 129/1/6 121/1/6 130/1/6
f 121/3/6 122/3/6 131/3/6
f 130/1/6 121/1/6 131/1/6
f 122/1/6 123/1/6 132/1/6
f 131/3/6 122/3/6 132/3/6
f 123/3/6 124/3/6 133/3/6
f 132/1/6 123/1/6 133/1/6
f 124/1/6 125/1/6 134/1/6
f 133/3/6 124/3/6 134/3/6
f 125/3/6 113/3/6 135/3/6
f 134/1/6 125/1/6 135/1/6
f 113/1/6 126/1/6 136/1/6
f 135/3/6 113/3/6 136/3/6
f 126/2/6 127/2/6 137/2/6
f 136/1/6 126/1/6 137/1/6
f 127/1/6 46/1/6 138/1/6
f 137/2/6 127/2/6 138/2/6
f 116/2/6 128/2/6 139/2/6
f 45/1/6 116/1/6 139/1/6
f 128/2/6 129/2/6 139/2/6
f 129/3/6 130/3/6 140/3/6
f 139/2/6 129/2/6 140/2/6
f 140/3/6 130/3/6 141/3/6
f 130/2/6 131/2/6 142/2/6
f 141/3/6 130/3/6 142/3/6
f 131/1/6 132/1/6 143/1/6
f 142/2/6 131/2/6 143/2/6
f 134/3/6 135/3/6 144/3/6
f 143/1/6 132/1/6 144/1/6
f 133/3/6 134/3/6 144/3/6
f 132/3/6 133/3/6 144/3/6
f 144/3/6 135/3/6 145/3/6
f 145/3/6 135/3/6 146/3/6
f 137/3/6 138/3/6 147/3/6
f 136/3/6 137/3/6 147/3/6
f 135/1/6 136/1/6 147/1/6
f 147/3/6 138/3/6 148/3/6
f 139/1/6 140/1/6 149/1/6
f 45/1/6 139/1/6 149/1/6
f 149/1/6 140/1/6 150/1/6
f 140/3/6 141/3/6 151/3/6
f 150/1/6 140/1/6 151/1/6
f 141/2/6 142/2/6 152/2/6
f 151/3/6 141/3/6 152/3/6
f 142/1/6 143/1/6 153/1/6
f 152/2/6 142/2/6 153/2/6
f 144/3/6 145/3/6 154/3/6
f 153/1/6 143/1/6 154/1/6
f 143/3/6 144/3/6 154/3/6
f 145/1/6 146/1/6 155/1/6
f 154/3/6 145/3/6 155/3/6
f 146/3/6 135/3/6 156/3/6
f 155/1/6 146/1/6 156/1/6
f 147/1/6 148/1/6 157/1/6
f 156/3/6 135/3/6 157/3/6
f 135/1/6 147/1/6 157/1/6
f 157/1/6 148/1/6 158/1/6
f 148/3/6 138/3/6 159/3/6
f 158/1/6 148/1/6 159/1/6
f 138/1/6 46/1/6 160/1/6
f 159/3/6 138/3/6 160/3/6
f 154/1/6 155/1/6 161/1/6
f 153/1/6 154/1/6 161/1/6
f 152/3/6 153/3/6 161/3/6
f 161/1/6 155/1/6 162/1/6
f 162/1/6 155/1/6 163/1/6
f 155/3/6 156/3/6 164/3/6
f 163/1/6 155/1/6 164/1/6
f 156/2/6 157/2/6 165/2/6
f 164/3/6 156/3/6 165/3/6
f 157/3/6 158/3/6 166/3/6
f 165/2/6 157/2/6 166/2/6
f 158/2/6 159/2/6 167/2/6
f 166/3/6 158/3/6 167/3/6
f 159/2/6 160/2/6 167/2/6
f 167/2/6 160/2/6 168/2/6
f 151/1/6 152/1/6 169/1/6
f 150/1/6 151/1/6 169/1/6
f 161/3/6 162/3/6 170/3/6
f 169/1/6 152/1/6 170/1/6
f 152/3/6 161/3/6 170/3/6
f 170/3/6 162/3/6 171/3/6
f 162/1/6 163/1/6 172/1/6
f 171/3/6 162/3/6 172/3/6
f 163/3/6 164/3/6 173/3/6
f 172/1/6 163/1/6 173/1/6
f 164/1/6 165/1/6 174/1/6
f 173/3/6 164/3/6 174/3/6
f 165/1/6 166/1/6 174/1/6
f 174/1/6 166/1/6 175/1/6
f 168/2/6 160/2/6 176/2/6
f 167/3/6 168/3/6 176/3/6
f 166/3/6 167/3/6 176/3/6
f 160/1/6 46/1/6 177/1/6
f 176/2/6 160/2/6 177/2/6
f 149/3/6 150/3/6 178/3/6
f 45/1/6 149/1/6 178/1/6
f 150/1/6 169/1/6 179/1/6
f 178/3/6 150/3/6 179/3/6
f 170/3/6 171/3/6 180/3/6
f 179/1/6 169/1/6 180/1/6
f 169/3/6 170/3/6 180/3/6
f 171/1/6 172/1/6 181/1/6
f 180/3/6 171/3/6 181/3/6
f 172/3/6 173/3/6 182/3/6
f 181/1/6 172/1/6 182/1/6
f 173/3/6 174/3/6 182/3/6
f 174/2/6 175/2/6 183/2/6
f 182/3/6 174/3/6 183/3/6
f 175/1/6 166/1/6 184/1/6
f 183/2/6 175/2/6 184/2/6
f 166/3/6 176/3/6 185/3/6
f 184/1/6 166/1/6 185/1/6
f 176/3/6 177/3/6 185/3/6
f 177/1/6 46/1/6 186/1/6
f 185/3/6 177/3/6 186/3/6
f 182/1/6 183/1/6 187/1/6
f 180/1/6 181/1/6 187/1/6
f 185/1/6 186/1/6 187/1/6
f 45/1/6 178/1/6 187/1/6
f 184/1/6 185/1/6 187/1/6
f 179/1/6 180/1/6 187/1/6
f 181/1/6 182/1/6 187/1/6
f 178/1/6 179/1/6 187/1/6
f 183/1/6 184/1/6 187/1/6
f 186/1/6 46/1/6 188/1/6
f 187/1/6 186/1/6 188/1/6
